<?xml version="1.0" encoding="utf-8"?>
<!-- Generator: Adobe Illustrator 20.0.0, SVG Export Plug-In . SVG Version: 6.00 Build 0)  -->
<svg version="1.1" id="Layer_1" xmlns="http://www.w3.org/2000/svg" xmlns:xlink="http://www.w3.org/1999/xlink" x="0px" y="0px"
	 viewBox="0 0 50 50" style="enable-background:new 0 0 50 50;" xml:space="preserve">
<style type="text/css">
	.st0{fill:#FFFFFF;}
</style>
<g>
	<path class="st0" d="M26.4,15.3h19c-2.2-1.8-4.9-2.8-7.9-2.8H26.4c-0.8,0-1.4,0.6-1.4,1.4C25,14.7,25.6,15.3,26.4,15.3z"/>
	<path class="st0" d="M4.6,20.8h44.7c-0.3-1-0.8-1.9-1.4-2.8H4.6c-0.8,0-1.4,0.6-1.4,1.4C3.2,20.2,3.8,20.8,4.6,20.8z"/>
	<path class="st0" d="M2.9,29.2c-0.8,0-1.4,0.6-1.4,1.4S2.1,32,2.9,32h45c0.6-0.9,1-1.8,1.4-2.8H2.9z"/>
	<path class="st0" d="M12.5,34.7c-0.8,0-1.4,0.6-1.4,1.4c0,0.8,0.6,1.4,1.4,1.4h25c3,0,5.7-1,7.9-2.8H12.5z"/>
	<path class="st0" d="M49.9,23.6H1.4C0.6,23.6,0,24.2,0,25s0.6,1.4,1.4,1.4h48.5C50,25.5,50,24.5,49.9,23.6z"/>
</g>
</svg>
