<?xml version="1.0" encoding="utf-8"?>
<!-- Generator: Adobe Illustrator 20.1.0, SVG Export Plug-In . SVG Version: 6.00 Build 0)  -->
<svg version="1.1" xmlns="http://www.w3.org/2000/svg" xmlns:xlink="http://www.w3.org/1999/xlink" x="0px" y="0px"
	 viewBox="0 0 1475.2 360" enable-background="new 0 0 1475.2 360" xml:space="preserve">
<g id="Working_File_Backgrounds">
</g>
<g id="Icons">
	<g>
		<path fill="#46E691" d="M303.1,70.4h197.7c-22.4-18.1-50.8-29-81.9-29H303.1c-8,0-14.5,6.5-14.5,14.5S295.1,70.4,303.1,70.4z"/>
		<path fill="#46C8A0" d="M76.1,128.3h465.7c-3.6-10.3-8.5-20-14.5-29H76.1c-8,0-14.5,6.5-14.5,14.5S68.1,128.3,76.1,128.3z"/>
		<path fill="#3C96BE" d="M57.8,215.2c-8,0-14.5,6.5-14.5,14.5c0,8,6.5,14.5,14.5,14.5h469.5c6-8.9,10.9-18.6,14.5-29H57.8z"/>
		<path fill="#3C7DCD" d="M158.3,273.1c-8,0-14.5,6.5-14.5,14.5s6.5,14.5,14.5,14.5h260.6c31,0,59.5-10.9,81.9-29H158.3z"/>
		<path fill="#41B4AF" d="M548.4,157.3H42.5c-7.9,0-14.5,6.6-14.5,14.5c0,7.9,6.6,14.5,14.5,14.5h505.9
			C549.4,176.6,549.4,166.9,548.4,157.3z"/>
	</g>
	<g>
		<g>
			<path fill="#FFFFFF" d="M659.3,267c-1.7,0.2-3.5,0.2-5.3,0.2h-27.5v34.9H607V186.3h47c29.6,0,46.7,14.4,46.7,39.5
				c0,18.5-8.6,31.6-24,37.6l26,38.7h-22.2L659.3,267z M654,249.7c17.9,0,28.1-7.6,28.1-23.3c0-15.2-10.3-22.5-28.1-22.5h-27.5v45.8
				H654z"/>
			<path fill="#FFFFFF" d="M802.3,265.4h-66.5c3,13.6,13.4,22,27.3,22c9.6,0,18.4-3.6,24.8-10.3l10.1,10.8
				c-8.6,9.4-21.2,14.9-36.4,14.9c-27.1,0-45-18-45-44.5c0-26.6,18.4-44.7,44.5-44.8C792,213.4,804.6,233.6,802.3,265.4z
				 M785.7,251.5c-0.7-14.2-10.1-22.8-24.5-22.8c-13.9,0-23.7,8.8-25.8,22.8H785.7z"/>
			<path fill="#FFFFFF" d="M874.9,291.4c-6.3,7.8-16.4,11.6-29.1,11.6c-19,0-30.9-11.7-30.9-27.3c0-16,12.1-26.3,33.3-26.5h26.6
				v-2.6c0-11.1-7.1-17.7-21-17.7c-8.4,0-17.2,3-26,8.9l-7.8-13.2c12.2-7.3,21.2-11.1,37.9-11.1c22.7,0,35.4,11.6,35.6,30.9
				l0.2,57.8h-18.7V291.4z M874.7,271.2v-8.1h-23.8c-12.4,0-18.2,3.3-18.2,11.8c0,7.9,6.5,13.1,17,13.1
				C863.3,287.9,873.8,280.8,874.7,271.2z"/>
			<path fill="#FFFFFF" d="M976.2,222.2l-7,14.1c-7.8-4.8-17.5-7.8-25.3-7.8c-7.4,0-12.9,2.5-12.9,8.8c0,16.2,46.8,7.4,46.7,39.4
				c0,18-16.1,26.1-33.8,26.1c-12.9,0-26.6-4.3-35.4-12.2l6.8-13.6c7.6,6.8,19.9,10.9,29.5,10.9c8.1,0,14.4-2.8,14.4-9.4
				c0-18-46.3-7.9-46.2-39.7c0-17.9,15.6-25.5,32.4-25.5C956.5,213.3,968.2,216.6,976.2,222.2z"/>
			<path fill="#FFFFFF" d="M1080.4,258.1c0,26.5-18.7,44.7-45.8,44.7c-27.3,0-46-18.2-46-44.7c0-26.6,18.7-44.7,46-44.7
				C1061.7,213.4,1080.4,231.5,1080.4,258.1z M1007.6,258.3c0,17,11.1,28.6,27,28.6c15.7,0,26.8-11.6,26.8-28.6
				c0-16.9-11.1-28.5-26.8-28.5C1018.7,229.8,1007.6,241.4,1007.6,258.3z"/>
			<path fill="#FFFFFF" d="M1184.5,247.4v54.8h-19v-49.5c0-13.2-7.9-21.3-21.2-21.3c-14.6,0.2-23.7,10.3-25,24v46.8h-19v-88h19V231
				c6.3-12.2,17.5-17.5,32.4-17.5C1172.3,213.4,1184.5,226.3,1184.5,247.4z"/>
			<path fill="#FFFFFF" d="M1230.5,188.9c0,6.6-4.8,11.4-11.1,11.4c-6.3,0-11.1-4.8-11.1-11.4c0-6.8,4.8-11.6,11.1-11.6
				C1225.7,177.4,1230.5,182.2,1230.5,188.9z M1210,302.1v-88h18.9v88H1210z"/>
			<path fill="#FFFFFF" d="M1341.2,247.4v54.8h-19v-49.5c0-13.2-7.9-21.3-21.2-21.3c-14.6,0.2-23.7,10.3-25,24v46.8h-19v-88h19V231
				c6.3-12.2,17.5-17.5,32.4-17.5C1329,213.4,1341.2,226.3,1341.2,247.4z"/>
			<path fill="#FFFFFF" d="M1446.1,293.5c0,25.3-18,41.2-45.7,41.2c-13.7,0-25.8-4.3-36.6-11.6l8.1-13.7c8.3,6.1,16.9,9.6,27.6,9.6
				c16.7,0,27.6-9.8,27.6-25v-11.1c-6,9.6-15.9,14.9-29.1,14.9c-23.8,0-39.7-17.2-39.7-42.5c0-24.8,15.7-41.7,39.1-41.9
				c13.6-0.2,23.7,5.3,29.8,14.9v-14.2h18.9V293.5z M1427.2,255.8c0-15.9-10.4-27-25.3-27c-15.1,0-25.5,11.3-25.6,27
				c0.2,15.9,10.4,27.1,25.6,27.1C1416.8,282.9,1427.2,271.7,1427.2,255.8z"/>
		</g>
		<g>
			<path fill="#FFFFFF" d="M654.5,41.5c34.8,0,59.9,24.3,59.9,57.9c0,33.4-25.3,57.9-60.4,57.9h-47V41.5H654.5z M626.5,139.8H655
				c22.5,0,39.7-16.7,39.7-40.2c0-23.7-17.7-40.5-40.6-40.5h-27.6V139.8z"/>
			<path fill="#FFFFFF" d="M754,44.2c0,6.6-4.8,11.4-11.1,11.4c-6.3,0-11.1-4.8-11.1-11.4c0-6.8,4.8-11.6,11.1-11.6
				C749.2,32.6,754,37.4,754,44.2z M733.5,157.4v-88h18.9v88H733.5z"/>
			<path fill="#FFFFFF" d="M859.9,148.8c0,25.3-18,41.2-45.7,41.2c-13.7,0-25.8-4.3-36.6-11.6l8.1-13.7c8.3,6.1,16.9,9.6,27.6,9.6
				c16.7,0,27.6-9.8,27.6-25v-11.1c-6,9.6-15.9,14.9-29.1,14.9c-23.8,0-39.7-17.2-39.7-42.5c0-24.8,15.7-41.7,39.1-41.9
				c13.6-0.2,23.7,5.3,29.8,14.9V69.3h18.9V148.8z M841,111c0-15.9-10.4-27-25.3-27c-15.1,0-25.5,11.3-25.7,27
				c0.2,15.9,10.4,27.1,25.7,27.1C830.6,138.2,841,126.9,841,111z"/>
			<path fill="#FFFFFF" d="M906.9,44.2c0,6.6-4.8,11.4-11.1,11.4c-6.3,0-11.1-4.8-11.1-11.4c0-6.8,4.8-11.6,11.1-11.6
				C902.1,32.6,906.9,37.4,906.9,44.2z M886.4,157.4v-88h18.9v88H886.4z"/>
			<path fill="#FFFFFF" d="M983.2,151.7c-7,4.1-14.2,6.5-21.7,6.5c-13.2,0-24.7-7.6-24.7-25.7V86.9h-12.4V72.6h12.4V48.5h18.9v24.2
				h26v14.2h-26v42.2c0,9.1,3.5,11.9,9.4,11.9c4,0,8.1-1.3,13.2-3.8L983.2,151.7z"/>
			<path fill="#FFFFFF" d="M1053.5,146.6c-6.3,7.8-16.4,11.6-29.1,11.6c-19,0-31-11.8-31-27.3c0-16.1,12.1-26.3,33.3-26.5h26.6v-2.6
				c0-11.1-7.1-17.7-21-17.7c-8.4,0-17.2,3-26,8.9l-7.8-13.2c12.2-7.3,21.2-11.1,37.9-11.1c22.7,0,35.4,11.6,35.6,31l0.2,57.8h-18.7
				V146.6z M1053.4,126.4v-8.1h-23.8c-12.4,0-18.2,3.3-18.2,11.7c0,7.9,6.5,13.1,17,13.1C1042,143.1,1052.4,136,1053.4,126.4z"/>
			<path fill="#FFFFFF" d="M1098.6,157.4V34.6h19v122.8H1098.6z"/>
		</g>
	</g>
</g>
</svg>
